<svg preserveAspectRatio="none" overflow="visible" style="display: block;" width="120" height="47" viewBox="0 0 120 47" fill="none" xmlns="http://www.w3.org/2000/svg">
<g id="logo">
<path d="M8.84687 14.3858V0H0V36.6703H8.78601C8.78601 35.1154 8.78601 33.5605 8.78601 32.0056C8.78601 31.9419 8.78601 31.8814 8.7796 31.8176C8.7796 31.789 8.75398 31.7762 8.73155 31.7858C8.69952 31.7985 8.6707 31.8145 8.63867 31.8272C8.45929 31.9164 8.28313 32.0056 8.10375 32.0917C8.06852 32.1108 8.03329 32.1267 7.99485 32.1426C7.91157 32.1745 7.87634 32.149 7.86993 32.0566C7.84431 31.7826 7.90196 31.5341 8.06211 31.3238C8.13899 31.2218 8.22547 31.1358 8.32477 31.0625C8.44968 30.9701 8.57781 30.8809 8.70913 30.798C8.76359 30.763 8.78921 30.7216 8.78921 30.6515C8.78921 30.1704 8.79562 29.6892 8.75398 29.2081C8.68031 28.367 8.61945 27.5258 8.63226 26.6814C8.64507 25.8467 8.74437 25.0246 8.97819 24.2281C9.12233 23.7374 9.31451 23.2754 9.56435 22.8452C9.70208 22.6063 9.87185 22.4023 10.0736 22.2303C10.5317 21.8384 11.0442 21.5771 11.5919 21.3891C11.6175 21.3796 11.6463 21.3764 11.6752 21.3732C11.6976 21.37 11.7168 21.3955 11.7104 21.421C11.704 21.4497 11.6944 21.4815 11.6848 21.5102C11.2876 22.8357 10.9225 24.1739 10.6053 25.528C10.3811 26.4839 10.1825 27.4461 10.032 28.4179C9.97434 28.7875 9.9327 29.1603 9.89427 29.5331C9.87825 29.6924 9.90708 29.8454 9.94552 29.9951C10.0192 30.2851 10.1153 30.5655 10.2082 30.8458C10.3939 31.4034 10.5829 31.9546 10.7687 32.5122C10.8392 32.7225 10.9 32.936 10.9673 33.1495C10.9897 33.2196 11.0121 33.2897 11.0538 33.3534C11.0986 33.4203 11.1531 33.449 11.2267 33.4299C11.2652 33.4203 11.3004 33.4076 11.3389 33.3916C11.8898 33.1845 12.4567 33.0571 13.0301 32.9711C13.6162 32.885 14.2056 32.85 14.795 32.8787C15.6213 32.9169 16.4349 33.0475 17.2293 33.312C17.3254 33.3438 17.4183 33.3821 17.5144 33.4171C17.6457 33.4617 17.7129 33.4331 17.7738 33.2992C17.8058 33.226 17.8315 33.1495 17.8571 33.0762C18.1486 32.1904 18.4368 31.3047 18.7283 30.4189C18.7732 30.2787 18.8116 30.1321 18.8532 29.9919C18.9109 29.7976 18.9173 29.6 18.8917 29.3993C18.8404 28.9787 18.786 28.5581 18.7155 28.1407C18.4849 26.7515 18.171 25.3847 17.8154 24.0305C17.5976 23.1989 17.367 22.3673 17.1204 21.5453C17.1076 21.5038 17.0948 21.4624 17.0883 21.421C17.0819 21.3987 17.1012 21.3828 17.1172 21.3859C17.1492 21.3859 17.1844 21.3955 17.2165 21.4051C17.7514 21.5803 18.2479 21.8416 18.6963 22.2112C18.9077 22.3864 19.0871 22.5999 19.2344 22.8452C19.5483 23.371 19.7565 23.9477 19.907 24.553C20.0448 25.1075 20.1217 25.6746 20.1537 26.2513C20.1889 26.8662 20.1665 27.4748 20.1249 28.0866C20.0928 28.5486 20.0544 29.0074 20.0256 29.4694C19.9999 29.8613 20.0127 30.2564 20.0127 30.6515C20.0127 30.7216 20.0384 30.7694 20.0896 30.8044C20.1665 30.8554 20.2434 30.9032 20.3202 30.9574C20.4099 31.0211 20.4996 31.0848 20.5829 31.1549C20.7783 31.3206 20.8904 31.5436 20.9352 31.8145C20.9512 31.9132 20.9545 32.012 20.9256 32.1108C20.9128 32.1522 20.8872 32.1713 20.8487 32.1586C20.8007 32.1426 20.7527 32.1267 20.7078 32.1044C20.5445 32.0247 20.3843 31.9419 20.2209 31.8591C20.1761 31.8368 20.1313 31.8113 20.0832 31.7922C20.0448 31.7762 20.0192 31.7922 20.0192 31.8431C20.0192 31.8877 20.0192 31.9292 20.0192 31.9738C20.0192 33.5414 20.0192 35.1058 20.0192 36.6734H28.8212V0H19.9743V14.3858H8.84687ZM17.1204 22.6955C17.4151 23.7246 17.6745 24.7665 17.9179 25.8116C18.1325 26.7356 18.3215 27.6692 18.4625 28.6123C18.5009 28.8704 18.5361 29.1317 18.5714 29.3897C18.5778 29.4439 18.5938 29.4981 18.5682 29.5522C18.5041 29.5522 18.4593 29.514 18.4112 29.4917C17.8859 29.2336 17.3478 29.0106 16.7937 28.8481C15.8648 28.5772 14.9231 28.4657 13.9654 28.5103C12.7194 28.5709 11.5374 28.915 10.4068 29.4917C10.3523 29.5204 10.3043 29.565 10.2402 29.5554C10.2146 29.4949 10.2338 29.4407 10.2402 29.3866C10.3843 28.2268 10.6021 27.0861 10.8584 25.955C11.2043 24.4352 11.6047 22.9344 12.0499 21.4465C12.1172 21.2171 12.0691 21.2521 12.2966 21.2043C13.0365 21.0482 13.786 20.9877 14.5387 21.0004C14.9615 21.0068 15.3843 21.0259 15.8039 21.0832C16.057 21.1183 16.31 21.1661 16.563 21.2139C16.6559 21.233 16.7104 21.2744 16.7392 21.3796C16.8641 21.8193 16.9987 22.259 17.1236 22.6987L17.1204 22.6955ZM80.7557 19.8024L95.2175 36.6703H84.6698L75.1984 25.3878C73.4559 27.0829 72.4757 29.4057 72.4757 31.8304V36.6734H64.5353V0H72.4757V16.8679L81.7774 7.61508L93.0074 7.67243L80.7589 19.8024H80.7557ZM105.368 7.61508C97.2579 7.67243 90.7909 14.2169 90.8485 22.2271C90.8485 30.2373 97.4276 36.7244 105.538 36.6703C113.59 36.6129 120.057 30.0684 120 22.0582C120 14.0481 113.421 7.55772 105.368 7.61508ZM110.528 27.1912C109.225 28.5454 107.408 29.2782 105.48 29.3356C103.552 29.3356 101.736 28.6027 100.374 27.2486C99.0131 25.8944 98.2188 24.0879 98.2188 22.1698C98.2188 20.2516 98.9555 18.5024 100.317 17.0909C101.678 15.7368 103.437 15.0039 105.365 15.0039C107.293 15.0039 109.109 15.7368 110.471 17.0336C111.832 18.3877 112.626 20.1943 112.626 22.1124C112.626 24.0305 111.889 25.8371 110.528 27.1912ZM53.1965 7.50356V10.7185C51.438 8.51678 48.4335 7.50356 45.6533 7.50356C37.6008 7.56091 31.0793 14.1054 31.1338 22.1156C31.1914 30.1258 37.7705 36.6161 45.823 36.5587C48.488 36.5587 51.438 35.657 53.1965 33.398V36.6703H61.1369V15.4022C61.1369 11.0403 57.5815 7.50356 53.1965 7.50356ZM50.8134 27.0797C49.5098 28.4339 47.6936 29.1667 45.7654 29.2241C43.8371 29.2241 42.021 28.4912 40.6597 27.1371C39.2984 25.7829 38.504 23.9763 38.504 22.0582C38.504 20.1401 39.2407 18.3335 40.602 16.9794C41.9634 15.6252 43.7795 14.8924 45.7077 14.8924C47.5783 14.8351 49.3945 15.5711 50.7558 16.922C52.1747 18.2762 52.9114 20.0828 52.9114 22.0009C52.9114 23.919 52.1747 25.7256 50.8134 27.0797Z" fill="#F3F9EE"/>
<path d="M0 46.9458V42.4851H1.74887C2.14285 42.4851 2.47597 42.5457 2.75464 42.6699C3.0333 42.7942 3.2447 42.9726 3.39525 43.2052C3.54579 43.4378 3.61946 43.7182 3.61946 44.04C3.61946 44.3618 3.54579 44.639 3.39525 44.8716C3.2447 45.1042 3.0333 45.2826 2.75464 45.4069C2.47597 45.5311 2.14285 45.5949 1.74887 45.5949H0.352337L0.640613 45.2954V46.9458H0ZM0.640613 45.3591L0.352337 45.0405H1.72965C2.13965 45.0405 2.45034 44.9544 2.66175 44.7792C2.87315 44.604 2.97885 44.3586 2.97885 44.04C2.97885 43.7214 2.87315 43.476 2.66175 43.3008C2.45034 43.1256 2.13965 43.0395 1.72965 43.0395H0.352337L0.640613 42.7209V45.3591Z" fill="#70B344"/>
<path d="M5.48365 46.9458L7.51439 42.4851H8.1486L10.1857 46.9458H9.5131L7.70017 42.842H7.95641L6.14348 46.9458H5.48365ZM6.34847 45.8307L6.52144 45.3209H9.04545L9.23123 45.8307H6.34847Z" fill="#70B344"/>
<path d="M12.3895 46.9458V42.4851H14.1383C14.5323 42.4851 14.8654 42.5457 15.1441 42.6699C15.4228 42.7942 15.6342 42.9726 15.7847 43.2052C15.9352 43.4378 16.0089 43.7182 16.0089 44.04C16.0089 44.3618 15.9352 44.639 15.7847 44.8716C15.6342 45.1042 15.4228 45.2794 15.1441 45.4037C14.8654 45.528 14.5323 45.5885 14.1383 45.5885H12.7418L13.0301 45.2954V46.9458H12.3895ZM13.0301 45.3591L12.7418 45.0468H14.1191C14.5291 45.0468 14.8398 44.9576 15.0512 44.7824C15.2626 44.6071 15.3683 44.3586 15.3683 44.04C15.3683 43.7214 15.2626 43.476 15.0512 43.3008C14.8398 43.1256 14.5291 43.0395 14.1191 43.0395H12.7418L13.0301 42.7209V45.3591ZM15.3875 46.9458L14.2472 45.3272H14.9327L16.0858 46.9458H15.3875Z" fill="#70B344"/>
<path d="M18.5842 46.9458V42.4851H19.2248V46.9458H18.5842ZM19.1479 45.8689L19.1159 45.0915L21.6591 42.4851H22.3894L20.4227 44.5498L20.064 44.9449L19.1479 45.8689ZM21.7616 46.9458L19.9231 44.8174L20.3523 44.3459L22.5111 46.9458H21.7616Z" fill="#70B344"/>
<path d="M27.9884 46.9458V42.4851H28.5137L31.4797 46.1493H31.2043V42.4851H31.8449V46.9458H31.3196L28.3535 43.2817H28.629V46.9458H27.9884Z" fill="#70B344"/>
<path d="M36.752 47C36.4092 47 36.0921 46.9426 35.8007 46.8279C35.5092 46.7132 35.2561 46.5539 35.0415 46.3468C34.8269 46.1397 34.6604 45.9008 34.5418 45.6236C34.4233 45.3464 34.3625 45.0468 34.3625 44.7187C34.3625 44.3905 34.4233 44.091 34.5418 43.8138C34.6604 43.5366 34.8269 43.2976 35.0415 43.0905C35.2561 42.8834 35.506 42.7241 35.7975 42.6094C36.0889 42.4947 36.406 42.4373 36.752 42.4373C37.0979 42.4373 37.4086 42.4947 37.7001 42.6062C37.9915 42.7177 38.2414 42.877 38.456 43.0841C38.6706 43.2912 38.834 43.5334 38.9525 43.8106C39.071 44.0878 39.1286 44.3905 39.1286 44.7187C39.1286 45.0468 39.071 45.3527 38.9525 45.6299C38.834 45.9071 38.6706 46.1461 38.456 46.3532C38.2414 46.5603 37.9915 46.7196 37.7001 46.8311C37.4086 46.9426 37.0947 47 36.752 47ZM36.7456 46.4329C36.9986 46.4329 37.2292 46.3914 37.4406 46.3054C37.652 46.2194 37.8346 46.1015 37.9915 45.9454C38.1485 45.7892 38.2702 45.6076 38.3567 45.4005C38.4432 45.1934 38.488 44.964 38.488 44.7187C38.488 44.4733 38.4432 44.2471 38.3567 44.04C38.2702 43.8329 38.1485 43.6513 37.9915 43.4951C37.8346 43.339 37.652 43.2179 37.4406 43.1319C37.2292 43.0459 36.9986 43.0045 36.7456 43.0045C36.4925 43.0045 36.2683 43.0459 36.0569 43.1319C35.8455 43.2179 35.6597 43.339 35.5028 43.4951C35.3458 43.6513 35.2209 43.8329 35.1344 44.04C35.0479 44.2471 35.0031 44.4733 35.0031 44.7187C35.0031 44.964 35.0479 45.1934 35.1344 45.4005C35.2209 45.6076 35.3458 45.7892 35.5028 45.9454C35.6597 46.1015 35.8455 46.2194 36.0569 46.3054C36.2683 46.3914 36.4989 46.4329 36.7456 46.4329Z" fill="#70B344"/>
<path d="M42.6776 46.9458L41.1786 42.4851H41.8384L43.2157 46.6017H42.8826L44.3112 42.4851H44.9006L46.2971 46.6017H45.9768L47.3733 42.4851H47.9819L46.4829 46.9458H45.8102L44.5034 43.1287H44.6763L43.3631 46.9458H42.6776Z" fill="#70B344"/>
<path d="M50.4547 46.9873C50.3362 46.9873 50.2337 46.9458 50.1472 46.863C50.0607 46.7801 50.0191 46.675 50.0191 46.5476C50.0191 46.4201 50.0607 46.315 50.1472 46.2353C50.2337 46.1557 50.3362 46.1142 50.4547 46.1142C50.5732 46.1142 50.6693 46.1557 50.7526 46.2353C50.8358 46.315 50.8775 46.4201 50.8775 46.5476C50.8775 46.675 50.8358 46.7801 50.7526 46.863C50.6693 46.9458 50.57 46.9873 50.4547 46.9873Z" fill="#70B344"/>
<path d="M57.9563 47C57.6135 47 57.2868 46.949 56.9761 46.8439C56.6654 46.7387 56.4188 46.6049 56.2394 46.4392L56.4764 45.9422C56.6462 46.0919 56.864 46.213 57.1299 46.3118C57.3957 46.4106 57.6712 46.4583 57.9563 46.4583C58.2157 46.4583 58.4271 46.4297 58.5905 46.3691C58.7538 46.3086 58.8723 46.2289 58.9492 46.1238C59.0261 46.0186 59.0645 45.9008 59.0645 45.7701C59.0645 45.6172 59.0133 45.4929 58.914 45.4005C58.8147 45.3081 58.6834 45.2316 58.5232 45.1743C58.363 45.1169 58.1869 45.066 57.9947 45.0245C57.8025 44.9831 57.6103 44.9321 57.4149 44.8748C57.2195 44.8174 57.0434 44.7442 56.8832 44.6549C56.7231 44.5657 56.595 44.4447 56.4957 44.2949C56.3964 44.1451 56.3483 43.9508 56.3483 43.7118C56.3483 43.4728 56.4092 43.2721 56.5309 43.0778C56.6526 42.8834 56.8416 42.7305 57.0946 42.6126C57.3477 42.4947 57.6712 42.4373 58.0652 42.4373C58.3246 42.4373 58.5841 42.4724 58.8403 42.5393C59.0965 42.6062 59.3176 42.705 59.5065 42.8324L59.2951 43.3422C59.1029 43.2148 58.9012 43.1224 58.6866 43.065C58.4719 43.0077 58.267 42.979 58.0652 42.979C57.8121 42.979 57.6071 43.0108 57.4438 43.0746C57.2804 43.1383 57.1619 43.2243 57.0882 43.3295C57.0146 43.4346 56.9761 43.5557 56.9761 43.6863C56.9761 43.8425 57.0274 43.9699 57.1267 44.0623C57.226 44.1547 57.3573 44.2312 57.5174 44.2853C57.6776 44.3395 57.8538 44.3905 58.0459 44.4351C58.2381 44.4797 58.4303 44.5307 58.6257 44.5848C58.8211 44.639 58.9973 44.7123 59.1574 44.8015C59.3176 44.8907 59.4457 45.0086 59.545 45.1584C59.6443 45.3081 59.6923 45.4993 59.6923 45.7319C59.6923 45.9645 59.6315 46.1652 59.5065 46.3596C59.3816 46.5539 59.1926 46.7069 58.9332 46.8248C58.6737 46.9427 58.3502 47 57.9563 47Z" fill="#70B344"/>
<path d="M63.0555 46.9458V43.0395H61.5181V42.4851H65.2272V43.0395H63.6897V46.9458H63.0555Z" fill="#70B344"/>
<path d="M69.4873 47C69.1446 47 68.8275 46.9426 68.536 46.8279C68.2445 46.7132 67.9915 46.5539 67.7769 46.3468C67.5622 46.1397 67.3957 45.9008 67.2772 45.6236C67.1587 45.3464 67.0978 45.0468 67.0978 44.7187C67.0978 44.3905 67.1587 44.091 67.2772 43.8138C67.3957 43.5366 67.5622 43.2976 67.7769 43.0905C67.9915 42.8834 68.2413 42.7241 68.5328 42.6094C68.8243 42.4947 69.1414 42.4373 69.4873 42.4373C69.8332 42.4373 70.1439 42.4947 70.4354 42.6062C70.7269 42.7177 70.9767 42.877 71.1913 43.0841C71.4059 43.2912 71.5693 43.5334 71.6878 43.8106C71.8063 44.0878 71.864 44.3905 71.864 44.7187C71.864 45.0468 71.8063 45.3527 71.6878 45.6299C71.5693 45.9071 71.4059 46.1461 71.1913 46.3532C70.9767 46.5603 70.7269 46.7196 70.4354 46.8311C70.1439 46.9426 69.83 47 69.4873 47ZM69.4809 46.4329C69.7339 46.4329 69.9645 46.3914 70.1759 46.3054C70.3873 46.2194 70.5699 46.1015 70.7269 45.9454C70.8838 45.7892 71.0055 45.6076 71.092 45.4005C71.1785 45.1934 71.2233 44.964 71.2233 44.7187C71.2233 44.4733 71.1785 44.2471 71.092 44.04C71.0055 43.8329 70.8838 43.6513 70.7269 43.4951C70.5699 43.339 70.3873 43.2179 70.1759 43.1319C69.9645 43.0459 69.7339 43.0045 69.4809 43.0045C69.2278 43.0045 69.0036 43.0459 68.7922 43.1319C68.5808 43.2179 68.395 43.339 68.2381 43.4951C68.0811 43.6513 67.9562 43.8329 67.8697 44.04C67.7833 44.2471 67.7384 44.4733 67.7384 44.7187C67.7384 44.964 67.7833 45.1934 67.8697 45.4005C67.9562 45.6076 68.0811 45.7892 68.2381 45.9454C68.395 46.1015 68.5808 46.2194 68.7922 46.3054C69.0036 46.3914 69.2342 46.4329 69.4809 46.4329Z" fill="#70B344"/>
<path d="M74.3816 46.9458V42.4851H76.1304C76.5244 42.4851 76.8575 42.5457 77.1362 42.6699C77.4149 42.7942 77.6263 42.9726 77.7768 43.2052C77.9274 43.4378 78.001 43.7182 78.001 44.04C78.001 44.3618 77.9274 44.639 77.7768 44.8716C77.6263 45.1042 77.4149 45.2794 77.1362 45.4037C76.8575 45.528 76.5244 45.5885 76.1304 45.5885H74.7339L75.0222 45.2954V46.9458H74.3816ZM75.0222 45.3591L74.7339 45.0468H76.1112C76.5212 45.0468 76.8319 44.9576 77.0433 44.7824C77.2547 44.6071 77.3604 44.3586 77.3604 44.04C77.3604 43.7214 77.2547 43.476 77.0433 43.3008C76.8319 43.1256 76.5212 43.0395 76.1112 43.0395H74.7339L75.0222 42.7209V45.3591ZM77.3796 46.9458L76.2393 45.3272H76.9248L78.0779 46.9458H77.3796Z" fill="#70B344"/>
<path d="M81.2169 46.3914H83.8306V46.9458H80.5763V42.4851H83.7409V43.0395H81.2169V46.3914ZM81.1593 44.4096H83.4655V44.9513H81.1593V44.4096Z" fill="#70B344"/>
<path d="M89.6666 46.9458V42.4851H90.3072V46.3914H92.7351V46.9458H89.6666Z" fill="#70B344"/>
<path d="M94.3303 46.9458L96.361 42.4851H96.9952L99.0323 46.9458H98.3597L96.5468 42.842H96.803L94.9901 46.9458H94.3303ZM95.1951 45.8307L95.368 45.3209H97.8921L98.0778 45.8307H95.1951Z" fill="#70B344"/>
<path d="M102.127 46.9458V43.0395H100.589V42.4851H104.298V43.0395H102.761V46.9458H102.127Z" fill="#70B344"/>
<path d="M107.175 46.3914H109.788V46.9458H106.534V42.4851H109.699V43.0395H107.175V46.3914ZM107.117 44.4096H109.423V44.9513H107.117V44.4096Z" fill="#70B344"/>
<path d="M112.364 46.9458V42.4851H114.112C114.506 42.4851 114.839 42.5457 115.118 42.6699C115.397 42.7942 115.608 42.9726 115.759 43.2052C115.909 43.4378 115.983 43.7182 115.983 44.04C115.983 44.3618 115.909 44.639 115.759 44.8716C115.608 45.1042 115.397 45.2794 115.118 45.4037C114.839 45.528 114.506 45.5885 114.112 45.5885H112.716L113.004 45.2954V46.9458H112.364ZM113.004 45.3591L112.716 45.0468H114.093C114.503 45.0468 114.814 44.9576 115.025 44.7824C115.237 44.6071 115.342 44.3586 115.342 44.04C115.342 43.7214 115.237 43.476 115.025 43.3008C114.814 43.1256 114.503 43.0395 114.093 43.0395H112.716L113.004 42.7209V45.3591ZM115.362 46.9458L114.221 45.3272H114.907L116.06 46.9458H115.362Z" fill="#70B344"/>
<path d="M118.616 46.9873C118.497 46.9873 118.395 46.9458 118.308 46.863C118.222 46.7801 118.18 46.675 118.18 46.5476C118.18 46.4201 118.222 46.315 118.308 46.2353C118.395 46.1557 118.497 46.1142 118.616 46.1142C118.734 46.1142 118.83 46.1557 118.914 46.2353C118.997 46.315 119.039 46.4201 119.039 46.5476C119.039 46.675 118.997 46.7801 118.914 46.863C118.83 46.9458 118.731 46.9873 118.616 46.9873Z" fill="#70B344"/>
</g>
</svg>
